<svg xmlns="http://www.w3.org/2000/svg" xmlns:xlink="http://www.w3.org/1999/xlink" viewBox="0 0 97.9 88.29"><defs><style>.cls-1{fill:#21141a;}.cls-1,.cls-10{opacity:0.41;}.cls-2{fill:#1b4800;}.cls-3{fill:#53cc09;}.cls-4{fill:#2e8d04;}.cls-5{fill:#2c7300;}.cls-6{fill:#c0f79e;}.cls-7{fill:#1f5800;}.cls-8{fill:#fcc500;}.cls-9{fill:#96f25e;}.cls-10{fill:url(#linear-gradient);}.cls-11{fill:#f29400;}.cls-12{fill:#fbe62b;}.cls-13{fill:#faea65;}</style><linearGradient id="linear-gradient" x1="35.34" y1="46.61" x2="65.27" y2="46.61" gradientUnits="userSpaceOnUse"><stop offset="0" stop-color="#483334"/><stop offset="1" stop-color="#21141a"/></linearGradient></defs><g id="Слой_2" data-name="Слой 2"><g id="Слой_6" data-name="Слой 6"><path class="cls-1" d="M49,88.26A94,94,0,0,1,39,88,11.52,11.52,0,0,0,37.65,88c-2.19,0-6.11,0-7.54-4.26A6.93,6.93,0,0,1,25,86c-2.64.07-5.25.29-7.7.52-.71.06-1.47.11-2.27.12A23.66,23.66,0,0,1,5.65,85,8.74,8.74,0,0,1,0,76.75c0-.44,0-.74,0-1,.24-5,3.51-9.58,5.9-13.36,2.85-4.49,5.73-9,8.59-13.47,1.28-2,2.67-3.86,3.9-5.49,1.28-1.89,2.59-3.74,3.91-5.53l0-.08c.38-.64,4.79-6.56,5.43-4.69-1.38-4,3.23-8.73,5-11.59a59.81,59.81,0,0,1,3.77-5.82c1-1.29,3.29-4.49,4.92-3.48a8.54,8.54,0,0,1,7-7.16c4.6-.47,9.06,5.44,12.12,9.09a203.3,203.3,0,0,1,12.6,17.3l.2.29c2.37,3.52,4.89,7.62,4.69,11.64a6.92,6.92,0,0,1-.71,2.78c2.85.54,5.1,3.32,6.89,6,2.36,3.49,4.42,7.2,6.72,10.71a58.16,58.16,0,0,1,6,10.51,9.78,9.78,0,0,1,.1,8c-2.19,4.64-8,5.55-14,5.84l-.91,0c-2.58.13-5.15.25-7.74.3q-1.26,0-2.52,0l-1.35,0c-.47,0-1,0-1.48.06-1.86,0-6.09.09-8.21-3.75a9.5,9.5,0,0,1-.85,1.38,6.84,6.84,0,0,1-4.32,2.71A62.44,62.44,0,0,1,49,88.26Z"/><path class="cls-2" d="M49,83.26A94,94,0,0,1,39,83,11.52,11.52,0,0,0,37.65,83c-2.19,0-6.11,0-7.54-4.26A6.93,6.93,0,0,1,25,81c-2.64.07-5.25.29-7.7.52-.71.06-1.47.11-2.27.12A23.66,23.66,0,0,1,5.65,80,8.74,8.74,0,0,1,0,71.75c0-.44,0-.74,0-1,.24-5,3.51-9.58,5.9-13.36,2.85-4.49,5.73-9,8.59-13.47,1.28-2,2.67-3.86,3.9-5.49,1.28-1.89,2.59-3.74,3.91-5.53l0-.08c.38-.64,4.79-6.56,5.43-4.69-1.38-4,3.23-8.73,5-11.59a59.81,59.81,0,0,1,3.77-5.82c1-1.29,3.29-4.49,4.92-3.48a8.54,8.54,0,0,1,7-7.16c4.6-.47,9.06,5.44,12.12,9.09a203.3,203.3,0,0,1,12.6,17.3l.2.29c2.37,3.52,4.89,7.62,4.69,11.64a6.92,6.92,0,0,1-.71,2.78c2.85.54,5.1,3.32,6.89,6,2.36,3.49,4.42,7.2,6.72,10.71a58.16,58.16,0,0,1,6,10.51,9.78,9.78,0,0,1,.1,8c-2.19,4.64-8,5.55-14,5.84l-.91,0c-2.58.13-5.15.25-7.74.3q-1.26,0-2.52,0l-1.35,0c-.47,0-1,0-1.48.06-1.86,0-6.09.09-8.21-3.75a9.5,9.5,0,0,1-.85,1.38,6.84,6.84,0,0,1-4.32,2.71A62.44,62.44,0,0,1,49,83.26Z"/><path class="cls-3" d="M46.83,17.88a40.71,40.71,0,0,0,.57,8.65c-1,1-2.52,5-3.77,5.19-2.54.38-2.32-9.22-2.42-11.26-.33-6.65,1.27-16,8.3-17,3.69-.55,17.37,18.84,21.64,25.19,1.42,2.12,4.41,6.4,4.26,9.54-.14,2.88-5,5.48-6.93,5.48-.84,0-2.69-3.24-3.74-4.78-1.72-2.51-3.87-4.53-5.65-7s-3.86-4.5-5.37-7.13a62,62,0,0,0-4.37-6.33c-1.48-2-1.65-5.18-1.78-7.85A52.5,52.5,0,0,0,46.83,17.88Z"/><path class="cls-3" d="M25.58,33.13c1-1.41,2.16-2.34,3.05,0,.72,1.91.55,4.8.55,6.87,0,2.47.63,5.1.25,7.56-.43,2.7-2.35,4.43-3.88,6.24-.92,1.07-2,3.57-3.48,3s-2.94-2.22-4.32-3.12c.61.39,1.27,1.8,1.73,2.43a18.21,18.21,0,0,1,1.86,3c.94,2.17-3.05,3.31-.92,6.39,1.11,1.62,2.28,1.17,3.78.86,1.72-.36,4.4-1.29,5.7.75,1.15,1.79.24,4.88-.34,6.76-.82,2.69-2.46,3.62-4.64,3.68-2.63.07-5.18.29-7.84.54-3.15.29-7.53.08-10.54-1.25-5.18-2.3-4.48-6.75-1.74-11.46C8.69,58.71,12.49,52.43,16.62,46c2.32-3.63,5.06-6.8,7.42-10.38C24.42,35.05,25,34,25.58,33.13Z"/><path class="cls-3" d="M35,18.88c.29-.45,4-5.31,4-5.14.4,3.81.43,7.59.47,11.42,0,3.57.7,7.46.32,11-.33,3.15-2.17,6.41-4.56,7.61-3.18,1.61-3.91-2.21-4.16-5.43-.27-3.56-1.38-8.14-.7-11.67C30.9,23.93,33.55,21.17,35,18.88Z"/><path class="cls-3" d="M55.35,79.56a4.36,4.36,0,0,0,2.76-1.68c1.93-2.57,1.19-6.43.84-9.54C58.57,65,58,64,55.2,63.68c-3.18-.41-6.42.45-9.57.36a44.42,44.42,0,0,0-5.27-.35c-1.23.12-2.51.11-3.73.33-4.42.85-5.17,8.22-4.19,12.82.75,3.52,4.73,2.52,6.87,2.82A116.36,116.36,0,0,0,55.35,79.56Z"/><path class="cls-3" d="M85.92,55.49c.4.67,6.85,9.73,8.68,14.33,3.31,8.39-7.86,8.73-11.83,8.93-3.6.17-7.19.36-10.79.33-2.58,0-7.45.89-9-2.51-.91-2-2-7.6-1.13-9.72.66-1.56,2.21-1.26,3.6-1.11,2.71.29,9.48,3.47,11.35-.29,1.4-2.79-.86-7.88-2.07-10.25-1.56-3-3.45-8.44.39-10.44C79.16,42.67,83.3,51,85.92,55.49Z"/><path class="cls-4" d="M40.19,60.13a118.74,118.74,0,0,1,16.66.3c2.68.2,5.53,1,8.21.68,2.13-.24,4.48.06,6.58-.57,3.27-1,0-4.66-1.18-6.31-1.83-2.44-3.84-4.68-5.49-7.33-5-8-11.42-20.06-19.33-11.09-3.52,4-6.54,8.18-10.21,11.9-1.19,1.21-11.08,10.75-9.77,12.88.61,1,2.79.42,3.62.32,1.84-.23,3.62-.29,5.47-.42S38.38,60.26,40.19,60.13Z"/><path class="cls-5" d="M27.88,34.38c.24,4,.75,8.37.74,12.4s-3.5,6.61-5.84,8.88a17.09,17.09,0,0,0-6-2.81c.48,3.78,3.91,5.28,2.49,9.22-.53,1.47-1.76,2.73-.78,4.29,2.25,3.59,8.45-1.88,10.24,2.52.62,1.52-.61,5.76-1.43,7-1.65,2.46-5,1.3-7.25,1.3-3,0-6.77-1-9.69-.35,3.73-.86,10.82-6.65,3.56-8.83-1.94-.58-4.93-.43-3.32-4,.87-2,2.81-2.49,4-3.91,2-2.33,1.48-6.28,1.27-9.4,2.82,2.44,5.49,1.61,7.8-1.49,2.11-2.84,2.15-6.44,3-9.93.42-1.73,1.12-3.13,1.18-5Z"/><path class="cls-5" d="M33,68.89c-.25,2.84-.76,7,1.35,8.92s5.34.79,7.63.68c2.67-.13,5.35-.28,8-.33,2.21,0,5.41.85,7.08-1.48,1.81-2.54,1.09-7.34.84-10.41C56,70.63,50.3,72,46.76,73c-3,.86-7.88,3.28-10.87,1.27-1.37-.92-2.26-2.83-2.84-4.59Z"/><path class="cls-5" d="M87.14,59.71c.46.81.91,1.58,1.36,2.29,2.35,3.72,9,11.79,2.64,14.12C85.3,78.24,78,77.58,71.94,77.89c-4.34.21-7.1.07-9-5.4a23.82,23.82,0,0,0,10.92.83c4.61-.74,13.62-.15,11.52-9.1-1.48-6.25-6-10.53-7.74-16.52C81.71,49.59,84.53,55.15,87.14,59.71Z"/><path class="cls-5" d="M74.46,37.73c.05,2.41-1.74,3.65-4.23,4.6s-3.26-1-4.85-3a50.76,50.76,0,0,1-2.69-4.41c1.49,1.43,5.25,4.32,7,2.31,1.93-2.25-.71-5.81-2-7.48-3-4-5.14-8.94-8.32-12.77-1.83-2.21-3.78-4.23-5.57-6.51C52.47,8.72,50,6.73,49.19,4.67A11.53,11.53,0,0,1,52.34,6c1,1,2.06,2.37,3.07,3.46a87.21,87.21,0,0,1,6.67,8.15c4.13,5.67,9.61,10.83,12,18.22A6.48,6.48,0,0,1,74.46,37.73Z"/><path class="cls-5" d="M41.37,20.8c4.29,10.63,3.36-8.77,5.45-9.65.07,2.89-.55,6-.67,8.91s1.46,8.75-2,10S42.3,23.12,41.37,20.8Z"/><path class="cls-5" d="M36.35,34c.88-2.84.91-5.86,1.37-8.82a50,50,0,0,0,.28-8.3q.3,5.31.3,10.5c0,3.84,1.22,7.45-.07,11.19-.79,2.31-3.82,6.43-5.74,3.24-1.49-2.47-.67-6.4-1.25-9.19C32.27,37.58,34.6,39.67,36.35,34Z"/><path class="cls-6" d="M32.7,26.62c1.57-3.67,5.43-6.11,6.16-10.34a12.11,12.11,0,0,0,.07-2.48c-.84,1.34-1.82,2.36-2.72,3.62-2,2.84-5.19,5.93-5.72,9.85-.51,3.68.44,7.43.94,11C32.25,34.37,31.06,30.45,32.7,26.62Z"/><path class="cls-6" d="M26.83,31.83C22.67,37,19,42.75,15.25,48.37,13.09,51.58,11,55,9,58.3S1.12,68.77,3.09,73.56a5.41,5.41,0,0,0,5.1,3.18c-2.86-3.34-.89-12,2.07-14.6,1.2-1.06,2.86-.88,3.56-2.64.52-1.29,0-2.87.19-4.22a8.35,8.35,0,0,1,6.2-7.17c1.63-.4,1.72-.13,2.31-2.26.49-1.78.56-3.59,1-5.41.67-3.13,2.43-5.61,3.51-8.44Z"/><path class="cls-6" d="M44.16,11.59c.9-2.22,2.85-7.92,5.63-7.17-7.28-1.95-8.71,10-8.66,16.11,0,2.24.19,4.47.32,6.71C41.81,22.12,42.29,16.23,44.16,11.59Z"/><path class="cls-7" d="M67.23,50.49A52.2,52.2,0,0,1,71,56.8c1.4,2.79-1,2.83-2.64,3-2.77.32-5.39-.34-8.17-.44-5.71-.2-11.55-.29-17.26-.49-4-.13-8,0-12,.17,2-1.14,4.62-.51,6.74-.62,2.74-.14,5.2-1,7.87-1.74,1.74-.47,4.33-.78,5.54-2.74a3.37,3.37,0,0,0-2.07-4.86c6.22,1.77,7.66-3.5,8.68-9.85-.15.94,6.17,6.91,6.86,7.76C65.5,48.09,66.38,49.26,67.23,50.49Z"/><path class="cls-8" d="M46.36,40.94c3,.79,7.12-6.51,2.71-6.74C46.72,34.07,46,38.61,46.36,40.94Z"/><path class="cls-9" d="M32.73,69.29c.34-5.67,6.52-5.87,10-5.46,4.12.49,8.46-.94,12.51-.12,2.56.51,3.33,2.51,3.39,5.65.06-6.32-7.2-2.13-9.31-1.13s-3.75,1.88-6,1.28c-1.87-.52-3.54-1.64-5.46-2a4.4,4.4,0,0,0-4.94,2.18Z"/><path class="cls-9" d="M77.29,63.1c-.46,7.51-9.9,2.77-13.39,2.58-3-.17-2.45,4.86-1.54,7.15-1.1-2.78,7.14-1.37,8-1.55a28.15,28.15,0,0,0,8.07-2.54c2.13-1.17,1.94-4.53,1.52-7-.47-2.83-9.94-15-4-17-1.61.53-3.09,1-3.25,3.41a11.49,11.49,0,0,0,1.13,5C75.07,56.1,77.51,59.57,77.29,63.1Z"/><path class="cls-9" d="M55.3,27.14c3.08,3.44,5.77,6.85,8.59,10.61,1.06,1.42,3.39,5.5,5,5.6a4.59,4.59,0,0,0,2.95-1.61c-2.63.73-3.32-2.59-4.6-4.52-1.93-2.91-4.73-4.88-6.94-7.44a64.31,64.31,0,0,1-9.12-14.61C50,12.59,48.47,9.39,48.53,6.3,44.55,13.54,51.26,22.65,55.3,27.14Z"/><path class="cls-10" d="M50.92,66.66c-.75,0-1.05-.22-3.44-2.56a10.89,10.89,0,0,1-2-2L44,60.62l-.23-.26c-2.83-3-6.05-6.51-7.65-10.52A11.23,11.23,0,0,1,37,39.78,7.25,7.25,0,0,1,43.2,36.5h.15a31.72,31.72,0,0,0-2.38-3,7.88,7.88,0,0,1-1.64-1.72,2.68,2.68,0,0,1-.45-3.58,3.26,3.26,0,0,1,2-1.4,2.88,2.88,0,0,1,1.17-.26,2.51,2.51,0,0,1,1.18.29l.27.07c2.5.88,5.28,5,5.3,5.05.31.47.6.94.88,1.44a6.82,6.82,0,0,1,.43-.62,6.65,6.65,0,0,1,5.24-2.86c4.09,0,7.75,4.39,9.12,8.52,1.82,5.45.37,12-3.89,17.6-1.31,1.7-2.68,3.24-4,4.72A65.44,65.44,0,0,0,52.23,66l-.48.67Z"/><path class="cls-2" d="M49,63.1c-.75,0-1-.21-3.43-2.55a10.9,10.9,0,0,1-2-2l-1.45-1.47-.24-.26c-2.83-3.06-6-6.51-7.64-10.52a11.23,11.23,0,0,1,.89-10.06A7.27,7.27,0,0,1,41.24,33h.16A35.32,35.32,0,0,0,39,30a7.92,7.92,0,0,1-1.65-1.72,2.68,2.68,0,0,1-.45-3.58,3.25,3.25,0,0,1,2-1.4A2.84,2.84,0,0,1,40.13,23a2.49,2.49,0,0,1,1.17.28l.28.08c2.49.87,5.27,5,5.3,5.05.31.47.6.94.87,1.43a5.24,5.24,0,0,1,.44-.61,6.61,6.61,0,0,1,5.24-2.86c4.08,0,7.74,4.39,9.12,8.52,1.81,5.45.36,12-3.89,17.59-1.31,1.71-2.69,3.24-4,4.73a65.17,65.17,0,0,0-4.36,5.22l-.48.67Z"/><path class="cls-8" d="M56.68,50.63c-2.4,3.14-5.29,5.84-7.6,9-.12.16-5-4.77-5.22-5-2.52-2.71-5.49-5.86-6.89-9.35-1.78-4.46.34-11,6.18-10,4.08.65,6.68,6.85,6.76,10.61-.09-4.25-3.32-11-.39-14.63,4.07-5.12,9.1.43,10.52,4.69,1.66,5-.21,10.6-3.32,14.66A.1.1,0,0,1,56.68,50.63Z"/><path class="cls-8" d="M46,30.38c3.52,5.28,3.35,11.19,4.74,17a45.14,45.14,0,0,0-2.52-6.89,71.19,71.19,0,0,0-4.73-7.58A30.74,30.74,0,0,0,40.22,29c-.64-.66-1.49-1-.85-2.06a2.25,2.25,0,0,1,2.5-.57C43.22,26.83,45.19,29.23,46,30.38Z"/><path class="cls-11" d="M48.53,40.73a36.64,36.64,0,0,0-2.06-5.23,16.63,16.63,0,0,1,2.89,4.56c.74,1.93.74,4.19,1.63,6.06,2.08,4.37,5.76-5.63,5.91-7.37.18-2.08.4-6.15-1.23-7.76a14.74,14.74,0,0,1,4,10.72c-.29,4.47-3.11,8-5.77,11.31-1.16,1.46-3.22,4.79-5.13,5.17-2.69.54-5.13-4.7-6.57-6.35-2.61-3-4.13-5.37-4.55-9.39.73,3,3.65,5.21,6,6.95,1.71,1.24,4.59,4,5.59.71C50.19,47.25,49.34,43.53,48.53,40.73Z"/><path class="cls-12" d="M45,37.05c-2.7-2.78-6.51-1.39-7.61,2.07-1.19,3.79.53,6.35,2.25,9.59A22.88,22.88,0,0,0,43,53.47c-2.29-4.36-7.38-11.37-1.47-15.37a5.73,5.73,0,0,1,3.41-.81Z"/><path class="cls-12" d="M48.43,35.59c-.27-3.79,3.72-8.14,7.3-5.21a11,11,0,0,1,2,2.66c-2.31-2.71-5.38-1.36-6.88,1.35s-.66,5,0,7.92a37.76,37.76,0,0,1,.72,4.61,26.14,26.14,0,0,0-1.81-6c-.91-2-.88-4-1.46-6Z"/><path class="cls-13" d="M42,30.77c-.72-.81-2.34-1.7-2.53-2.84-.16-.95,1.39-2.53,2.29-1.5.67.75-.38,1.32-.74,1.93,1.56,1.06,4.87,4.41,5.21,6.23C44.57,33.92,43.13,32.07,42,30.77Z"/><path class="cls-13" d="M43.74,38.88c-1.44.25-3.74,3.55-1.09,3.29,1.56-.15,2.66-3.31.72-3.48Z"/><path class="cls-13" d="M45.75,41.81A2.07,2.07,0,0,0,47.91,44c.63-1.37-.1-3.33-1.76-3.23-.08.37-.39,1-.4,1.24Z"/></g></g></svg>