<svg xmlns="http://www.w3.org/2000/svg" xmlns:xlink="http://www.w3.org/1999/xlink" viewBox="0 0 92.55 95.27"><defs><style>.cls-1{fill:#21141a;}.cls-1,.cls-10,.cls-11,.cls-12,.cls-13,.cls-2,.cls-9{fill-rule:evenodd;}.cls-1,.cls-9{opacity:0.41;}.cls-2{fill:#1b4800;}.cls-3{fill:#3dbc06;}.cls-4{fill:#2e8d04;}.cls-5{fill:#2c7300;}.cls-6{fill:#1f5800;}.cls-7{fill:#c0f79e;}.cls-8{fill:#96f25e;}.cls-9{fill:url(#linear-gradient);}.cls-10{fill:#fcc500;}.cls-11{fill:#f39c00;}.cls-12{fill:#faea65;}.cls-13{fill:#fbe62b;}</style><linearGradient id="linear-gradient" x1="26.64" y1="44.99" x2="70.45" y2="44.99" gradientUnits="userSpaceOnUse"><stop offset="0" stop-color="#483334"/><stop offset="1" stop-color="#21141a"/></linearGradient></defs><g id="Слой_2" data-name="Слой 2"><g id="Слой_6" data-name="Слой 6"><path class="cls-1" d="M92.39,84.46a21,21,0,0,0-.92-3.92C91.2,79.77,89.29,76.18,88,77c2.28-1.46,4.35-4.44,4.1-10.55-.48-11.74,0-23.5-.26-35.25-.07-3.46,0-8.2-3.71-9.9a3,3,0,0,0-.5-.18,4.43,4.43,0,0,0,2.83-1.36A6.11,6.11,0,0,0,91.68,15C91,7,82.41,5.87,76,5.4c-2.9-.21-5.82-.27-8.73-.27-7.53,0-15,.47-22.57.16C40,5.1,32.83,3.77,30.17,9c.8-1.57-5.71-3.33-6.6-3.4a51.11,51.11,0,0,0-8.92,0c-3.44.32-6.92.39-9.68,2.6C.67,11.56.33,17.58.33,22.64c0,6.39-.3,12.93.9,19.24a9.89,9.89,0,0,0,5.65,6.88,8.49,8.49,0,0,0-3,2C.81,54,.2,58,.2,62.22.21,67.29,0,73,0,78.09,0,84.22.9,92.23,8.11,93.6c9.35,1.77,19,.37,28.4.37a9.11,9.11,0,0,0,4.3-.67c2.28-1.26,1.4-1.94,3.54-.67a14.3,14.3,0,0,0,4.43,1.91c3.73.8,7.62.57,11.4.66,7.48.19,16,0,23.46-.31,2.78-.12,5.83-.27,7.54-2.79C92.65,90,92.72,87,92.39,84.46Z"/><path class="cls-2" d="M92.39,79.46a21,21,0,0,0-.92-3.92C91.2,74.77,89.29,71.18,88,72c2.28-1.46,4.35-4.44,4.1-10.55-.48-11.74,0-23.5-.26-35.25-.07-3.46,0-8.2-3.71-9.9a3,3,0,0,0-.5-.18,4.43,4.43,0,0,0,2.83-1.36A6.11,6.11,0,0,0,91.68,10C91,2,82.41.87,76,.4,73.11.19,70.19.13,67.28.13c-7.53,0-15,.47-22.57.16C40,.1,32.83-1.23,30.17,4,31,2.41,24.46.65,23.57.58a51.11,51.11,0,0,0-8.92,0C11.21.86,7.73.93,5,3.14.67,6.56.33,12.58.33,17.64c0,6.39-.3,12.93.9,19.24a9.89,9.89,0,0,0,5.65,6.88,8.49,8.49,0,0,0-3,2C.81,49,.2,53,.2,57.22.21,62.29,0,68,0,73.09,0,79.22.9,87.23,8.11,88.6c9.35,1.77,19,.37,28.4.37a9.11,9.11,0,0,0,4.3-.67c2.28-1.26,1.4-1.94,3.54-.67a14.3,14.3,0,0,0,4.43,1.91c3.73.8,7.62.57,11.4.66,7.48.19,16,0,23.46-.31,2.78-.12,5.83-.27,7.54-2.79C92.65,85,92.72,82,92.39,79.46Z"/><path class="cls-3" d="M41.48,3.09c8.39-.3,17.09,0,25.42.33,6.43.23,21.53-2.69,22.32,6.75.38,4.52-2.22,3.46-5.86,3.24-4.17-.25-8.29.57-12.49.27C65.64,13.32,49.59,16.05,51.33,7c-1,2.1-.44,4.17-2.47,5.22-1,.54-4,.22-5.15.2-3.69-.06-8.82.42-12.35-.58,0-2.12-.15-5.55,1.38-7.25C34.71,2.39,38.74,3.19,41.48,3.09Z"/><path class="cls-3" d="M10.67,3.67a27.78,27.78,0,0,1,4.6-.24c3.9.08,10.46-1.95,13.06,2.19,2.28,3.62-.1,7.44-3.8,8.15-4.47.88-6.31,1-7,6.4-.66,5,1,10,.75,15-.19,3.28-.26,6.09-3.67,7.08-4.21,1.24-10.06-1.34-10.92-5.86C2.38,29.69,2.93,22.78,3.06,16,3.22,8.08,4.74,4.58,10.67,3.67Z"/><path class="cls-3" d="M80.37,17.73a4.79,4.79,0,0,0-4,2.71c-2.43,4.47-1.89,10.71-2.07,15.63C74,44.1,75,52,75,60c0,6.61.14,11.26,8.56,10.82,5.15-.27,6.25-5,6.08-9.32-.27-6.4-.13-12.77-.16-19.21,0-5.24-.58-10.52-.23-15.77.19-2.85.56-6.19-2.24-7.82C85.16,17.66,82.47,17.54,80.37,17.73Z"/><path class="cls-3" d="M50.47,86.33c10.75,1.9,22.78.42,33.74.74,4.05.12,5.4.2,5.76-4,.17-1.94.49-5.81-.89-7.44-3.32-3.9-13.87-1.5-18.3-1.73-6-.31-11.92-.12-17.89-.29-3.1-.09-6,1-7.43,3.84-.83,1.65-1.55,4.78-.74,6.53C45.9,86.55,47.74,85.85,50.47,86.33Z"/><path class="cls-3" d="M18.28,60.8c.46-4.37.93-8.81-.88-12.22-2-3.76-8.36-4.31-11.13-1.32-1.91,2.05-2.38,6.23-2.65,8.87-.71,6.8.49,13.64,0,20.4-.3,4.42-.36,8.63,4.93,9.64a60.15,60.15,0,0,0,13.34.6c4.84-.19,9.66-.11,14.51-.27,2.8-.09,3.34.19,4.62-2.1,1.13-2,1.76-7.42-.06-9.14-1.62-1.52-6.05-1-8-1-3.6-.15-13.66.44-14.73-4.29C17.62,67.24,18,64,18.28,60.8Z"/><path class="cls-4" d="M63.37,59.3a15,15,0,0,0,1-4.27c1.34-7.74,4.94-18.85,2-26.56C63.51,21,46.08,22.29,39.7,22.36a28.21,28.21,0,0,0-5.14-6.25c2.56.19,5.38,0,7.86,0,5.7,0,11.42-.32,17.11.05,3.11.21,10.76,0,12.71,2.91S72.41,28,72.05,31c-1.17,9.94-.82,19.78-1.23,29.74-.16,3.82,2.23,7.72-3.06,8.4a43.4,43.4,0,0,1-11,.19c-3.94-.61-4.16-4-6.83-6.81,2.71,1.37,8.56-.34,11.26-1.38A3.85,3.85,0,0,0,63.37,59.3Z"/><path class="cls-4" d="M21.79,63.41c-.11-1.42-.16-2.74-.25-3.57a75.88,75.88,0,0,1-.21-13.31c.61-9-.31-17.35,1.71-26.35,1.61-7.12,11.31-2.5,13.67,1.67C22.19,24.43,26.55,44.91,27,55.11c.26,6.4,3.58,6,9.19,6.35,3.65.23,7.11,1.1,10.8.95,1.22,0,2.76,6.59,3.09,7.69a47.63,47.63,0,0,1-7.46,0c-4.38-.18-8.73-.19-13.09-.36-1.62-.07-4.91.58-6.19-.61C22.32,68.23,22,65.71,21.79,63.41Z"/><path class="cls-5" d="M36.28,85.3c-1,.15-2.27.15-3.7.2-4.63.18-9.17-.1-13.76-.15-4.39-.06-9.84,1-13.36-2.4-3.08-3-.74-10.53-.72-14.33,0,7.51,6.2,13.08,13.51,13.95,6.31.76,24-.47,11.72-7.85,3.87,2.32,10.36-2.15,10,5.66C39.74,84,38.49,85,36.28,85.3Z"/><path class="cls-5" d="M72.41,85.7q4.83,0,9.66.19c7,.22,6.86-3,6.31-9.47.16,1.89-5.64,4.33-7.07,4.81C77.85,82.39,74,82.59,70.44,83c-5.94.73-12.43.88-18.11-1.29-2.06-.79-4-1.59-5.25-3.52.21.32-2.5,3.61-.89,5.58,2.7,3.29,11.18,1.87,14.71,1.86C64.74,85.67,68.58,85.67,72.41,85.7Z"/><path class="cls-5" d="M76,51.72c0,2.52,2.25,10.39,5.72,8.17,2.53-1.62,2.21-7.18,2.48-9.78A86.78,86.78,0,0,0,84.47,35c-.1-1.44.27-14.66.24-14.68,2.49,1.88,3,6.74,3.14,9.64a154.77,154.77,0,0,1-.42,20.22c-.48,5.52,3.85,23.35-8.05,18.77-2-.76-2.78-2.19-3.38-4.15C74.76,60.65,76,55.94,76,51.72Z"/><path class="cls-5" d="M16.15,23.08c-.55,6,4.45,21.86-7.6,17.08C3.64,38.21,4.14,33,4.12,28.55,4.79,30.74,6.75,35,9.7,34.44c3.65-.65,3.21-7.34,3.28-9.87.17-6.2-1.79-11.5,5-13.57,4.24-1.29,8.29-2,5.95-7.54,2.13,0,3.65,3.38,3.28,5.37-.82,4.42-4.78,3.12-7.38,4.78S16.4,20.29,16.15,23.08Z"/><path class="cls-5" d="M62.66,10l-2-.16A19.7,19.7,0,0,1,54,8.24c-.49-.22-5.13-3.82-4.62-3.95C46.61,5,44.82,8,41.58,8.73c-2.82.61-6.88,1-8.64-1.75-1.91,4.94,3,4.53,6.21,4.34,4.61-.26,9.69.59,11.29-4.78,3.44,5.65,6.11,6.06,12.59,6.19,5.84.11,11.82.64,17.67.39C82.5,13,86.83,13,88,11.35c2.76-3.82-5.52-6.91-8-7.5,5.94,1.44,2.47,4.84-1.5,5.73C73.49,10.72,67.9,10.36,62.66,10Z"/><path class="cls-6" d="M58,68.53c-2.17-.68-4-1.88-4.54-3.67,1.77,5.33,10.78,1.42,12.85-1.88,2.65-4.23,2-9.81,3.52-14.4-1.59,4.68,3.11,16.9-2.4,19.65C65.13,69.37,61.16,69.51,58,68.53Z"/><path class="cls-4" d="M42.05,60.11a95,95,0,0,0,13.45,0c6.61-.62,7.21-3.06,8.06-9.15.92-6.57,3.55-20.24-3.7-24.52-3-1.81-7.65-1.89-11.1-2.27-7-.75-16.82-.24-19.35,7.82-1.89,6-1.36,12.81-.78,19C29.27,58,35.27,59.65,42.05,60.11Z"/><path class="cls-6" d="M22.67,63.2c-.83,6.06,2.43,5.36,7,5.6,3.88.2,7.64.59,11.55.59,1.63,0,5.62.57,6.56-1.3.75-1.5-2.09-4.4-1.69-5.07-2.56,4.23-14,3.67-18,2.76-2-.45-4.38-.9-5.87-2.37Z"/><path class="cls-6" d="M29.06,46.71c-.79,12.74,10,11.87,19.81,12.68,9.06.73,13-2.36,14-11.15.83-7.28,2.57-15.57-3.69-21.08,1.44,5.69,3.53,13.88-.25,19.14-4.43,6.18-7,2.13-8.87-2.83,1.71,4.44,2,8.31-2.83,9.55s-17.27.62-18.18-6.1Z"/><path class="cls-6" d="M32.39,22c-.72,1.53-3.26,2.5-4.44,3.69-2.88,2.91-3.09,6-3.26,9.88-1.66-3.17-.31-8.94.85-12.07.58-1.57,1.34-3.58,2.95-4.42C30.73,17.88,33.76,19,32.39,22Z"/><path class="cls-6" d="M63.48,18.15c2.49.11,5.46.47,6.91,1.88,3.55,3.48,1.15,12.06-.92,15.75C68.4,33.35,69,30.68,67.56,28a15.5,15.5,0,0,0-5.31-5.63c-4.87-3-11.12-3.5-16.69-4q-4.31-.39-8.58-1c1.5.2,3.92-.62,5.63-.59,6.15.12,12.22,1.08,18.33,1.22C61.64,18.09,62.52,18.1,63.48,18.15Z"/><path class="cls-7" d="M4,29.65a15.31,15.31,0,0,0,.4-3.76,31,31,0,0,1,.85-5.23,48.92,48.92,0,0,1,1.47-6c.42-1.25.92-3.06,2-3.95s2.12.12,2.7,1.09a17,17,0,0,0-2-2.66c2.19-3.32,7.05-2.15,10.32-3,5.32-1.4,2.47-2.64-1.38-2.51-3.41.11-7-.41-10.27.72C5.2,5.31,3.9,8,3.48,10.71c-.45,3-.18,6-.52,9a37.76,37.76,0,0,0,.23,7.81,6.68,6.68,0,0,0,.63,2.7C3.87,30,3.93,29.83,4,29.65Z"/><path class="cls-7" d="M17.15,48.54l.23,0c-1.91-4.21-8.81-4.22-11.71-1.15-3.86,4.09-1.91,12-2.19,17.06C3.1,71.2.57,84.65,10.39,84.86c-2.33-.47-2.9-2.76-3.25-4.8-1.09-6.46-.39-13-.75-19.53-.17-3-.08-9,2.06-11.26C10.18,47.42,14.82,48.13,17.15,48.54Z"/><path class="cls-8" d="M59.15,5.76a69.3,69.3,0,0,0-9.5-.68c-5.8,0-12.08,2.67-17.63,2.38C31,.11,44.55,3.59,48.22,3.23c8.18-.8,16.51.39,24.7-.13,3.2-.21,7.1-.36,10,.89-3.57.63-5,4.73-9,4.12C69.23,7.4,64.16,6.41,59.15,5.76Z"/><path class="cls-8" d="M76.22,50a36.48,36.48,0,0,0-.59,5.68,65.93,65.93,0,0,0-.21-6.9c-.39-4.18-.66-8.26-.8-12.48-.14-4-1-8.22.09-12.15.72-2.6,1.36-5.86,4.48-6.39a12.42,12.42,0,0,1,4.17,0,17.33,17.33,0,0,1,3.77.71c1.26.58,1.42,2.21,2.21,3.26-.2-.27-2.76-.43-3.33-.63a9.92,9.92,0,0,0-3.38-.62C75,20.47,78,33.77,77.88,38.43,77.81,42.33,76.86,46.19,76.22,50Z"/><path class="cls-8" d="M52.15,73.75a189.36,189.36,0,0,1,20.63-.69,98.92,98.92,0,0,1,11.68.65c4.63.69,4.56,2.34,5.77,6.12-1.34-4.19-5.41-3.48-8.92-3.18-7.88.67-15.66-.13-23.55-.48-2.92-.14-7.45-.72-10,1C44.84,79.08,45.37,83,44.93,86,43.33,80.17,45.51,74.28,52.15,73.75Z"/><path class="cls-5" d="M14.22,50.63c.89,5.15.3,10.44,0,15.6-.11,1.77-.41,5.54.79,7a3.9,3.9,0,0,0,2.57,1.31c1,.14,1.84-.25,2.79-.14-2-.23-2.33-3.27-2.49-4.69-.13-1.13-.29-2.25-.36-3.42-.09-1.55.41-3.13.47-4.69a37.79,37.79,0,0,0-.44-8.16c-.31-1.69-1-3.75-2.92-4.09Z"/><path class="cls-8" d="M30.52,74.52c2.36.29,9.71-.59,10.45,2-4.47-.73-9.6-.32-14.3-.32-1.56,0-3.12.28-4.69.25-1.8,0-2.88-.49-3.23-2.47a12.29,12.29,0,0,1-.18-2.41c.58.08,1.43,1,2.09,1.27C23.71,73.94,27.3,74.13,30.52,74.52Z"/><path class="cls-8" d="M23.61,23.24c3.31.75,8-5.66,3.11-5.93C24.1,17.16,23.24,21.17,23.61,23.24Z"/><path class="cls-9" d="M50.27,65.82c-7.18,0-14.71-2.91-19.18-7.42C27.43,54.71,25.9,47.46,27,42.52c1.93-8.84,11.12-18.37,22.61-18.37h.54a20.22,20.22,0,0,1,17,9.87,22.19,22.19,0,0,1,1.3,21,14,14,0,0,1-.94,1.81,16.3,16.3,0,0,1-1.44,2,18.82,18.82,0,0,1-2.35,2.47C60.3,64.24,55.66,65.82,50.27,65.82Z"/><path class="cls-2" d="M46.26,61.81c-7.18,0-14.71-2.91-19.18-7.42C23.42,50.7,21.89,43.45,23,38.51c1.93-8.84,11.12-18.37,22.61-18.37h.53A20.2,20.2,0,0,1,63.1,30a22.19,22.19,0,0,1,1.3,21,14,14,0,0,1-.94,1.81,15.49,15.49,0,0,1-1.44,2,18.9,18.9,0,0,1-2.35,2.48C56.29,60.23,51.65,61.81,46.26,61.81Z"/><path class="cls-10" d="M51.14,38.18c-1.46-2.46-3.82-1.1-5,.88,1.34,0,1.52,1.27,1.23,2.2-.54,1.71-3.13,2.93-5,3.05-2.24.15-4-1.43-5-3.11-2.73-4.58,2.33-11,7.68-11,7.66,0,11.46,9.47,9.89,15.25-2.22,8.23-11.71,10-19.49,7.81-20-5.71-6.13-30.55,10.59-30.1C62.56,23.6,69.12,44.89,57.68,55c-7.49,6.62-21.88,3.93-28.46-2.71a16.38,16.38,0,0,1-1.89-2.37c6.8,6.38,18,9,26.83,4.16,7.65-4.19,7.83-16,1.62-21.45-5.56-4.91-17.51-3.9-22,1.86-6.08,7.84,1.87,14.58,10.68,12.05C47.75,45.58,53.48,42.13,51.14,38.18Z"/><path class="cls-11" d="M41.23,40.75c-3.39-.51-3.23-3.51-3-5.94-1.15,1.91-1.78,4.29-.64,6.31a7,7,0,0,0,5,3.08c1.77.22,5.22-1.49,4.28-3.65C46.31,39.17,42.51,40.94,41.23,40.75Z"/><path class="cls-11" d="M32.69,52.25a12.79,12.79,0,0,0,4.18,1.22c4.66.72,10.17.51,13.82-2.62a10.35,10.35,0,0,0,3.84-7.59,9.72,9.72,0,0,0-1-4.6,11,11,0,0,1-3.82,9.45c-2.39,2.12-5.2,2.48-8.38,2.5-5.69,0-10.62-2-12.72-7.17-.94-2.29-1.27-5.39.13-7.6C25,41.71,26,48.6,32.69,52.25Z"/><path class="cls-11" d="M61.11,36.75c.71,4,1.29,7.65-.11,11.65a14.13,14.13,0,0,1-6,7.23,28.79,28.79,0,0,1-4.56,1.94C55,56.92,58.55,55,60.9,51.22a13.91,13.91,0,0,0,1.65-9.74,18.31,18.31,0,0,0-1.84-5.11Z"/><path class="cls-12" d="M28.41,34.12c4.65-6.8,13.11-12.09,22.07-9.55a11.71,11.71,0,0,1,7.17,4.94,27.13,27.13,0,0,1,2.07,3.57c-3.18-2.81-6.6-5.79-11.09-6.48-5.74-.9-10.8.9-15.46,3.91a17.91,17.91,0,0,0-4.45,3.89Z"/><path class="cls-13" d="M52.68,35.16a17.11,17.11,0,0,1,1.12,4c-1.06-6.09-11-9-15.14-4-.59.74-.5,1.91-1,2.43-.61-3.41,3.54-6.41,6.74-6.81A8.1,8.1,0,0,1,52.68,35.16Z"/><path class="cls-13" d="M37.71,46.93a14.44,14.44,0,0,0,10.65-1.75,11.52,11.52,0,0,0,3.92-5c-1.67,4.71-4.64,8.69-10.44,8.65-3.08,0-6.76-.34-9-2.6s-2.07-6.25-1-9c-.12,2.42-.41,4,.84,6.23A7.44,7.44,0,0,0,37.71,46.93Z"/><path class="cls-12" d="M42,39.37c2.58.69,5.3-2.45,4.23-4.64s-4.13-.81-5.13.77C40.4,36.64,40.27,38.89,42,39.37Z"/></g></g></svg>