<svg xmlns="http://www.w3.org/2000/svg" xmlns:xlink="http://www.w3.org/1999/xlink" viewBox="0 0 94.22 96.24"><defs><style>.cls-1{fill:#fff8bd;}.cls-2{fill:#21141a;}.cls-2,.cls-9{opacity:0.41;}.cls-3{fill:#5d2514;}.cls-4{fill:#d35522;}.cls-5{fill:#bc421d;}.cls-6{fill:#9f2c16;}.cls-7{fill:#faea65;}.cls-8{fill:#fcc500;}.cls-9{fill:url(#linear-gradient);}.cls-10{fill:#bf1112;fill-rule:evenodd;}.cls-11{fill:#e1000f;}.cls-12{fill:#ff5470;}</style><linearGradient id="linear-gradient" x1="34.5" y1="48.8" x2="69.91" y2="48.8" gradientUnits="userSpaceOnUse"><stop offset="0" stop-color="#483334"/><stop offset="1" stop-color="#21141a"/></linearGradient></defs><g id="Слой_2" data-name="Слой 2"><g id="Слой_6" data-name="Слой 6"><path class="cls-1" d="M69.09,21.48a6.19,6.19,0,0,0,1.73,2.33c.5.57,1,1.09,1.56,1.68,1.21,1.73,2.24,3.61,3.39,5.4.7,1.36,1.38,2.74,2.12,4l0,0c.32.82.63,1.64.91,2.52,1.2,3.8,3,3.94,6.15,5.63,2.19,1.17,4.77,2.1,5-1.44.15-2.74-.68-5-1.27-7.58a38,38,0,0,0-2.53-8.42,30.75,30.75,0,0,0-3.47-5.58c-1-1.23-1.89-3.55-3.44-4.06-1.1-.36-3.64.35-4.78.66C72.38,17.24,68.26,18.57,69.09,21.48Z"/><path class="cls-1" d="M89.91,47.75C88.19,46,85.73,44,83.35,45.47A4.12,4.12,0,0,0,82,46.8,7.32,7.32,0,0,0,80.53,49c-1.06,2.48-2.21,4.71-3.48,7.1-1.46,2.75-3.1,5.09-4.8,7.68-.3.46-.62.94-.94,1.41s-.77.89-1.15,1.36a6.85,6.85,0,0,0-1.38,3.52,7.13,7.13,0,0,0-.18.8,6.3,6.3,0,0,0,.12,2.53c0,.08,0,.16,0,.23.12,2.29.17,6.21,3.08,6.48S77.3,77.9,79.2,76c.91-1,1.7-1.86,2.24-2.44a38.9,38.9,0,0,0,9-17.54C91.13,53.14,92.16,50.06,89.91,47.75Z"/><path class="cls-1" d="M59.41,75c-2.74-.19-5.32,1.16-8.21,1.34a52.73,52.73,0,0,1-14.5-1.25c-1.89-.57-4.47-2-6.57-1.73a2.39,2.39,0,0,0-2.19,1.28c-.81,1.27-.49,3.11.13,4.85.13.57.27,1.13.37,1.61l.33.51a5,5,0,0,1-.1-.64c.38.85.77,1.61,1.06,2.19,1.6,3.25,5,3.9,8.17,4.15,2.31.18,4.53.71,6.9.75s4.57,0,6.85,0c.67,0,1.7,0,2.93-.06,5.78-.28,16-1.64,12.72-8.09A8.21,8.21,0,0,0,59.41,75Z"/><path class="cls-1" d="M4.57,40.72c1.47.71,3.69-.8,5-1.31,1.79-.68,3.72-.83,5.49-1.49,3.87-1.43,4.26-6.17,6.07-9.49a21.42,21.42,0,0,1,5.71-6.62c1.65-1.28,6.45-3,6.72-5.33.2-1.79-1.77-3.57-3.5-4.79a4.41,4.41,0,0,0-1.59-1.06l-.08-.05a7.35,7.35,0,0,0-3.9-1.15h0a8.2,8.2,0,0,0-3.14.64c-3.48,1.22-6.15,4-8.74,6.87-.36.4-.69.85-1,1.28s-.49.59-.72.89c-.36.48-.72,1-1.07,1.48l-.52.78c-.52.79-1,1.6-1.49,2.43-.3.55-.61,1.1-.89,1.65-.11.2-.2.39-.3.58-.77,1.54-1.48,3.11-2.11,4.71C3.58,33,1.57,39.26,4.57,40.72Z"/><path class="cls-1" d="M15.15,51.37c-.63-1.92-.55-9.18-3.08-9.37a3.27,3.27,0,0,0-.91.09c-2.58.38-4.91,2.6-6.43,4.7A8.35,8.35,0,0,0,3.26,53a19.19,19.19,0,0,0,.8,4.36A47.49,47.49,0,0,0,6.74,64.5a25.34,25.34,0,0,0,3.15,5.59,23.35,23.35,0,0,0,6.58,5.69l-.3-.37a36.3,36.3,0,0,0,4.88,2.82c3,1.38,3.25-.62,4-3.31,1.2-4.43.55-6.54-2.09-10.15C19.79,60.47,16.84,56.59,15.15,51.37Z"/><path class="cls-1" d="M48.46,19.38a29.63,29.63,0,0,0-8.34,1.29,36.31,36.31,0,0,0-4.86,1.49c-5,2-9.5,5.23-11.6,10.61a40.17,40.17,0,0,0-1.9,18.06c.69,5.22,4.67,10.87,8.12,14.56,7.59,8.12,18.53,10.68,28.59,6A28.91,28.91,0,0,0,74.2,38.09C71,25.93,60.29,18.87,48.46,19.38Z"/><path class="cls-1" d="M37.93,16.89c-.14-.08-.27-.17-.4-.26l.56.77Z"/><path class="cls-2" d="M92,50.58l-.23-.23c.52.52,1-6.41,1-6.85a68.93,68.93,0,0,0-2.1-9c-1.81-6.92-7.13-18.17-15.47-16.18,0-.16.07-.31.09-.48.53-4.64-5.19-7.84-8.54-9.41C61.93,6.23,56.62,5.56,51.44,5.24s-10.55-.51-15.62.69c-2.38.56-5.38,1.73-6.84,3.94a5.78,5.78,0,0,0-.68,1.5c-4.53,0-8.64.3-12.48,3.15A39.43,39.43,0,0,0,4.9,27.63C2.5,32.08-.52,37.93.08,43.21c.22,2,1.4,4.38,3.24,5.27.06,0,.13,0,.18.07-.43.5-.82,1-1.13,1.41-4.5,6.24-1,14.55,1.68,20.78A28.12,28.12,0,0,0,7.59,77a30.78,30.78,0,0,0,8.11,7.42,17.17,17.17,0,0,0,5,2.16c1.15.26,4,.32,4.69-.75C26.28,91.26,30.81,94,35.6,95a73.26,73.26,0,0,0,21.67.82c4.29-.42,10.35-1.1,12.78-5.48A10.43,10.43,0,0,0,70.88,88c5.19,1.72,9.57-4,12.69-7.36A41.44,41.44,0,0,0,93.3,61.72l.17-.7C94.18,58.2,95.24,53.93,92,50.58Z"/><path class="cls-3" d="M92,45.58l-.23-.23c.52.52,1-6.41,1-6.85a68.93,68.93,0,0,0-2.1-9c-1.81-6.92-7.13-18.17-15.47-16.18,0-.16.07-.31.09-.48C75.77,8.24,70.05,5,66.7,3.47,61.93,1.23,56.62.56,51.44.24S40.89-.27,35.82.93c-2.38.56-5.38,1.73-6.84,3.94a5.78,5.78,0,0,0-.68,1.5c-4.53,0-8.64.3-12.48,3.15A39.43,39.43,0,0,0,4.9,22.63C2.5,27.08-.52,32.93.08,38.21c.22,2,1.4,4.38,3.24,5.27.06,0,.13,0,.18.07-.43.5-.82,1-1.13,1.41-4.5,6.24-1,14.55,1.68,20.78A28.12,28.12,0,0,0,7.59,72a30.78,30.78,0,0,0,8.11,7.42,17.17,17.17,0,0,0,5,2.16c1.15.26,4,.32,4.69-.75C26.28,86.26,30.81,89,35.6,90a73.26,73.26,0,0,0,21.67.82c4.29-.42,10.35-1.1,12.78-5.48A10.43,10.43,0,0,0,70.88,83c5.19,1.72,9.57-4,12.69-7.36A41.44,41.44,0,0,0,93.3,56.72l.17-.7C94.18,53.2,95.24,48.93,92,45.58Z"/><path class="cls-4" d="M61.25,4.86c3.3.89,5.81,1.51,8.25,3.94,1.06,1.06,3,1.92,2.82,3.72-.15,1.34-2,2.41-2.91,3.12-1.26,1-2.56,2-3.9,2.84-2.87,1.81-4.48-.63-7.19-1C55.2,17,52,16.54,48.91,16.12A19.17,19.17,0,0,0,42,16.3c-1.67.39-2.63.95-4.43.3-3-1.11-5.21-4.38-6.38-7.35C28.93,3.49,42.66,2.88,45.63,3.17c4.34.43,8.81.26,13.1,1.1C59.57,4.44,60.42,4.63,61.25,4.86Z"/><path class="cls-4" d="M76,31.21c-1.24-1.88-2.31-3.89-3.6-5.72-.84-1.2-2.88-2.61-3.28-4-.83-2.91,3.29-4.24,5.35-4.79,1.14-.31,3.68-1,4.78-.66,1.55.51,2.48,2.83,3.44,4.06a30.75,30.75,0,0,1,3.47,5.58,38,38,0,0,1,2.53,8.42c.59,2.58,1.42,4.84,1.27,7.58-.19,3.54-2.77,2.61-5,1.44-3.18-1.69-5-1.83-6.15-5.63A24,24,0,0,0,76,31.21Z"/><path class="cls-4" d="M79.2,76c-1.9,2-4.45,4.43-7.38,4.16s-3-4.19-3.08-6.48-.17-5.12,1.42-7.08c1.8-2.21,3.65-4,5.15-6.58,1.65-2.88,3.37-5.72,4.82-8.71,1-2,1.19-4.54,3.22-5.79,2.38-1.47,4.84.51,6.56,2.28,2.25,2.31,1.22,5.39.54,8.22a38.9,38.9,0,0,1-9,17.54C80.9,74.09,80.11,75,79.2,76Z"/><path class="cls-4" d="M54.58,88c5.78-.28,16-1.64,12.72-8.09C64.77,74.82,60,74,55.17,75.77a16.31,16.31,0,0,1-5.14.66,47.86,47.86,0,0,1-12.9-1.24c-2.4-.58-6.28-3.14-8.61-1.24-2.56,2.06.11,6.94,1.21,9.17,1.6,3.25,5,3.9,8.17,4.15,2.31.18,4.53.71,6.9.75s4.57,0,6.85,0C52.32,88,53.35,88,54.58,88Z"/><path class="cls-4" d="M4.47,30.74c-.89,2.23-2.9,8.52.1,10,1.47.71,3.69-.8,5-1.31,1.79-.68,3.72-.83,5.49-1.49,3.87-1.43,4.26-6.17,6.07-9.49a21.42,21.42,0,0,1,5.71-6.62c1.65-1.28,6.45-3,6.72-5.33s-3.51-4.87-5.17-5.9C23,7.24,17.74,11.78,13.83,15.69A43.87,43.87,0,0,0,4.47,30.74Z"/><path class="cls-4" d="M4.91,46.81C2.6,50,3,53.73,4.06,57.34,5.85,63.5,8.85,70.16,14.08,74a43.46,43.46,0,0,0,7,4.28c3,1.38,3.25-.62,4-3.31,1.2-4.43.55-6.54-2.09-10.15-3.15-4.3-6.1-8.18-7.79-13.4-.63-1.92-.55-9.18-3.08-9.37C10,41.85,6.69,44.35,4.91,46.81Z"/><path class="cls-5" d="M33.85,22.16c-5.36,2-10.1,5.23-12.33,10.61a37.85,37.85,0,0,0-2,18.06c.74,5.22,5,10.87,8.64,14.56a27,27,0,0,0,30.42,6c13.07-5.68,20.53-19.81,16.74-33.33C71.65,25.13,59,18,45.4,19.57A52.25,52.25,0,0,0,33.85,22.16Z"/><path class="cls-6" d="M26.39,63.24a20.36,20.36,0,0,0,3.34,3.6c1.53,1.26,3.43,1.92,5.09,3a11.79,11.79,0,0,0,4.84,1.89,69.73,69.73,0,0,0,10.89.87,22.74,22.74,0,0,0,10-2.26A31.49,31.49,0,0,0,67,65.14a30.26,30.26,0,0,0,4.48-4.78c2.5-3.76,3.55-8.5,3.76-13a33.8,33.8,0,0,0-.49-7.58,16.54,16.54,0,0,0-2.54-6.66,72.2,72.2,0,0,1-1.61,15,33.16,33.16,0,0,1-2,7.26c-2.84,6.39-8.49,12.15-15.29,13.86A22.47,22.47,0,0,1,46.7,70a21.84,21.84,0,0,1-7.47-1.69A33.49,33.49,0,0,1,31,63.12c-.62-.5-1.12-1.12-1.77-1.59a19.76,19.76,0,0,1-3.15-3.25c-1.92-2.21-2.67-5.18-4-7.72-.52-1-.91-1.92-1.34-2.91A12,12,0,0,0,21,53.2,19.33,19.33,0,0,0,23.62,59C24.49,60.43,25.38,61.88,26.39,63.24Z"/><path class="cls-6" d="M37,15c1.51.9,3-.06,4.6-.22,4.79-.49,10.94-1.38,15.36,1a15.13,15.13,0,0,0,4.77,2c1.9.28,3.09-.7,4.48-1.86s3.08-2,4.37-3.19c1.74-1.59,0-3.18-1.7-3.58.48,5.06-14.13.85-16.9.6-4.58-.4-8.71,1.5-13.22,1.84a6,6,0,0,1-5-1.47C33.7,11.8,35.73,14.28,37,15Z"/><path class="cls-6" d="M31.91,17A22.3,22.3,0,0,0,23,22.41,19.42,19.42,0,0,0,18.93,30c-1,3-1.38,4.95-4.31,6.39A70.3,70.3,0,0,1,6.48,39.6c-4,1.33-3.22-3.86-2.27-6.18,5,1.27,8.57-2.69,11.33-6.37,2-2.6,3.55-4.93,6.31-6.69a43.11,43.11,0,0,1,5.54-2.51c1.32-.6,3.1-1.51,4.56-.89.16,0,0-.11.09-.24Z"/><path class="cls-6" d="M12.82,71.33c2.57.85,5.35-.92,4.87-3.93a29.47,29.47,0,0,0-2.92-8.84c-2-3.79-3.73-7.68-4.09-12-.1-1.21.86-3,2-1.56,1,1.25.89,3.2,1.14,4.69a44.93,44.93,0,0,0,1.79,6.74c1.14,3.38,3.5,5.51,5.76,8.08,1.74,2,3.4,4.89,3.2,7.69-.14,1.94-1.59,5.91-4,4.93-1.35-.54-2.5-2-3.66-2.82C15.52,73.27,14.14,72.35,12.82,71.33Z"/><path class="cls-6" d="M29.34,78c1.26,3,2.49,5.08,5.1,7a7.59,7.59,0,0,0,5.11,1.45c2.14-.06,4.3.43,6.47.35,3.37-.11,6.77.58,10.12.18,1.79-.21,3.56-.63,5.34-1,1.39-.26,3.16-.4,4.3-1.37,2.69-2.26-1-6-2.56-7.63.27.82.77,2.11.4,3-.5,1.16-2.52,1.21-3.55,1.54a25.72,25.72,0,0,1-8.36,1.6c-3.66-.08-7.3.26-11,0a20.32,20.32,0,0,1-7-1.76C31.94,80.6,30.49,79,29,77.84Z"/><path class="cls-6" d="M69.82,69.56c.11,2.27-.39,8.26,2.07,9.46s6.6-3.67,8-5.33a36.09,36.09,0,0,0,6.85-11.13c1.14-3.14,3.17-6.44,3.54-9.81A5.09,5.09,0,0,0,88,48.21c.26.21-.73,3.45-.91,3.89-.59,1.43-1.4,2.76-2.07,4.16a93.39,93.39,0,0,1-5.24,10.32c-1,1.55-5.22,8.06-7.78,6.21-.94-.69-1.42-2.37-2-3.36Z"/><path class="cls-6" d="M79.64,17.36c2.59,5.38,6.35,9.75,7.67,15.74.7,3.17,3.89,10.09-2.07,8.45A10.5,10.5,0,0,1,79.77,38c2-.09,3.07.38,3.81-2a10.51,10.51,0,0,0,0-5.51,37.81,37.81,0,0,0-3-9.28,9.93,9.93,0,0,1-1-1.89c-.17-.73,0-1.5-.14-2.24.17,0,0,.05,0,.11Z"/><path class="cls-7" d="M30.42,12.24C30,10.91,27.49,9.87,26.3,9.51c-2.49-.75-5.74.61-7.79,2a30.65,30.65,0,0,0-5.9,5.48A39.32,39.32,0,0,0,5.24,29.16a38.3,38.3,0,0,0-1.83,7.71c.19-2.65,1.76-5,3.23-7.12,2-2.93,4.14-5.92,6.44-8.65,1.72-2,3.23-4.37,5.15-6.25,1.62-1.59,3.53-2.17,5.56-2.9A8.3,8.3,0,0,1,30.42,12.24Z"/><path class="cls-8" d="M34.2,9.52c0,2.22,1.84,7,4.49,7-2.95,0-6.34-3.45-7.27-6.36C30,5.85,34,4.36,37.35,3.86a63.18,63.18,0,0,1,13-.53c4,.24,8.56.64,12.3,2.19,1.22.5,2.48.62,3.6,1.15a12.5,12.5,0,0,1,5.16,4.05c-1.5-.05-2.8-1.29-4.12-1.9a27.29,27.29,0,0,0-5.48-1.58A82.11,82.11,0,0,0,49.11,5.33C45.62,5.07,34.16,3.89,34.2,9.52Z"/><path class="cls-8" d="M70,22.74C70.81,24,71.9,24.83,72.84,26c2,2.66,3.39,6,5,8.9a23.18,23.18,0,0,1,2.24,5.16,17.5,17.5,0,0,0-2.86-9.87c-1.39-2.3-3.64-5.62-3.35-8.5A5.18,5.18,0,0,1,76,18c1-.73,2.48-.92,3.3-1.88-.24.29-3.07.25-3.66.39a15.23,15.23,0,0,0-3.5,1.25C70.21,18.72,68.49,20.5,70,22.74Z"/><path class="cls-7" d="M12.08,42c-2.93-.1-5.65,2.42-7.35,4.77-2.94,4.07-1.06,8.38.21,12.66a32.85,32.85,0,0,0,5,10.64,23.35,23.35,0,0,0,6.58,5.69c-3.63-4.33-7.14-9.15-8.77-14.73C6.37,56.53,5,50.83,7.63,46.58c1.1-1.81,2.87-2.9,4.45-4.22Z"/><path class="cls-8" d="M33.07,76.3c-1.08,0-2.75.32-3.36,1.35-.33.55-.83,3.9-.49,4.42-1.73-2.61-3.13-9,1.62-8.75,1.75.1,3.25,1.17,4.94,1.55A54.05,54.05,0,0,0,51.2,76.3c3.67-.23,6.85-2.39,10.47-.82,1.49.64,3.53,1.6,4.2,3.19C63.08,77,61.1,77,57.9,77.55a66,66,0,0,1-9.19,1c-2.55.1-5.59.35-8.08-.28S35.77,76.4,33.07,76.3Z"/><path class="cls-8" d="M72.25,63.78c1.7-2.59,3.34-4.93,4.8-7.68,1.27-2.39,2.42-4.62,3.48-7.1.78-1.82,2.7-4,4.82-3.55,1.19.22,1.9,1.34,2.93,2-2.9.16-4.3.82-6.21,3.27-2.06,2.62-2.65,5.85-3.8,8.84a19.11,19.11,0,0,1-4.34,6.4c-1.61,1.64-3.53,3-3.91,5.42a15.48,15.48,0,0,0,.63,7.1c-.83-2.46-2.52-4.81-2.05-7.59S70.86,65.92,72.25,63.78Z"/><path class="cls-3" d="M46.87,67.62a16.08,16.08,0,0,1-9.62-2.83,62.61,62.61,0,0,1-6-4.72C29,58,28.58,55.47,28.19,53.29c-.11-.63-.22-1.28-.38-1.95-1.94-7.9-1.58-14,1-18.22,3.6-5.74,12.46-7.78,19.56-7.78a28.29,28.29,0,0,1,5.89.57c7.9,1.77,13.25,8.67,14,18,.63,8.29-2.78,18.26-11.81,21.8a26.57,26.57,0,0,1-9.57,1.9Z"/><path class="cls-5" d="M56.06,63.75C70.53,58.06,70.32,31.57,54.22,28,47.7,26.53,35,27.91,31,34.27c-2.91,4.64-2,11.55-.79,16.56.71,2.92.56,5.52,2.86,7.69a59.41,59.41,0,0,0,5.77,4.54C43.69,66.57,50.75,65.84,56.06,63.75Z"/><path class="cls-6" d="M35.31,59.64C38.89,63,43.94,64.22,48.72,64c4.34-.16,9.13-1.28,12.16-4.67,4.81-5.36,5.55-13.52,4-20.27-.7-3.05-2.39-5-4.35-7.22a4.43,4.43,0,0,1,.36,2.37,8.68,8.68,0,0,0,.38,2.17,30.48,30.48,0,0,1,.89,5.46c.21,2.46,0,5.34-1.43,7.43C56.46,55.4,49.45,49.18,48,44a12.74,12.74,0,0,1,1,5.9,7.25,7.25,0,0,1-2.41,3.74c-2.3,2.29-6,2.91-9.09,2.38a10.68,10.68,0,0,1-6.08-3.63,11.12,11.12,0,0,1,1.59,4A8,8,0,0,0,35.31,59.64Z"/><path class="cls-6" d="M53.42,21.22c-1.65.4-3.35.33-5,.7a15.24,15.24,0,0,0-2.68.58c-1.76.73-3.59,1.12-5.32,1.9-2.22,1-4.56,1.4-6.81,2.28a18.32,18.32,0,0,0-6.67,4.55c-2,2.08-3.27,4.49-4.8,7a13.88,13.88,0,0,1,.36-6c.63-1.78,2.05-3.06,3.32-4.37a19.57,19.57,0,0,1,4.94-3.77,27,27,0,0,1,6.35-2.52,43.64,43.64,0,0,1,5.7-.91,20.35,20.35,0,0,1,5.34-.33C49.84,20.56,51.89,20.25,53.42,21.22Z"/><path class="cls-8" d="M27.32,30a9,9,0,0,0,4-2.41c.61-.76,1.61-2.88.08-3.21a4.48,4.48,0,0,0-2.73.85c-1.39.78-3.25,2.33-3.72,3.89-.53,1.74,1.17,1.29,2.26.92Z"/><path class="cls-9" d="M47.45,73.6a13.72,13.72,0,0,1-10-4.73,12.72,12.72,0,0,1-2.91-9.4c.26-4,1.95-6.84,4.18-10.24A8.29,8.29,0,0,0,41,54.56C38.74,50.62,40,46,42.7,42.5a11.71,11.71,0,0,0,2-2.58c.32-.83.25-2,.52-2.84a18.1,18.1,0,0,1,1.15-2.87c2-5.07,7.08-9.43,9-10.2.59,3.65.34,7.77.6,11.56.21,2.94-.11,6.44,2.63,8.55.76.59,1.56,1.12,2.36,1.65a21.27,21.27,0,0,1,5.75,4.93,16.09,16.09,0,0,1,3,11.8,15.32,15.32,0,0,1-.7,2.86l0,.19c-1.2,4.6-6.91,8-11.94,7.61a11.65,11.65,0,0,0,2.28-7.06c0-2.69-1.92-4.22-3.07-6.5A10.36,10.36,0,0,1,57.46,64,9.5,9.5,0,0,1,50,73.29,10.67,10.67,0,0,1,47.45,73.6ZM42.07,56.7a6.88,6.88,0,0,0,1.06,3.14C43.29,59,42.83,58.06,42.07,56.7Z"/><path class="cls-3" d="M43.37,69.53a13.71,13.71,0,0,1-10-4.73,12.74,12.74,0,0,1-2.91-9.41c.26-4,1.95-6.83,4.18-10.24a8.3,8.3,0,0,0,2.23,5.34c-2.2-3.94-1-8.62,1.75-12.06a11.3,11.3,0,0,0,2-2.59c.31-.83.24-1.94.51-2.83a18.68,18.68,0,0,1,1.15-2.87c2-5.07,7.08-9.44,9-10.21.6,3.66.35,7.78.61,11.56.2,2.95-.12,6.45,2.62,8.56.77.59,1.57,1.11,2.36,1.64a21.34,21.34,0,0,1,5.76,4.93,16.13,16.13,0,0,1,3,11.8A14.52,14.52,0,0,1,65,61.29l0,.19c-1.2,4.6-6.9,8-11.94,7.61A11.67,11.67,0,0,0,55.27,62c0-2.69-1.92-4.21-3.07-6.5A10.4,10.4,0,0,1,53.39,60,9.51,9.51,0,0,1,46,69.22,11.21,11.21,0,0,1,43.37,69.53ZM38,52.63a6.73,6.73,0,0,0,1.07,3.13C39.22,55,38.76,54,38,52.63Z"/><path class="cls-10" d="M44.71,50.4c2.23,2.89,5.52,5.86,5.62,9.63a6.65,6.65,0,0,1-5.15,6.47c-3.5.86-7.26-1-9.42-3.45-3.47-4-2.28-9-1-13.59.09,2.65.15,5.78,1.92,8,1.44,1.83,4.07,2,5.12-.27,2-4.31-4.16-7.91-3-12.43A10.26,10.26,0,0,1,41.48,40C40.61,43.39,42.55,47.61,44.71,50.4Z"/><path class="cls-10" d="M52.62,42.2a8.23,8.23,0,0,1-2.09-2.36c-1.85-3.12-1.59-7.08-1.59-10.52a42.77,42.77,0,0,1,.3-4.39,14.47,14.47,0,0,0-3.24,4,27.3,27.3,0,0,0-1.88,4.83c-1.61,5.31.23,10,4.15,13.9C51.6,51,55.93,54,57.46,58.5c.6,1.78,1.22,6.53-.62,7.9,1.32-1.29,3-2,4-3.58a11.53,11.53,0,0,0,1.77-4.76,13.51,13.51,0,0,0-2.47-9.86C58.21,45.55,55.22,44.21,52.62,42.2Z"/><path class="cls-11" d="M49.15,38.68c1.68,3,4.87,4.76,7.53,7,4.73,3.92,7,9.29,5.29,15.1-.65,2.22-2.31,3.64-4.37,4.83,2.67-3.78,3.48-8.78,1.32-12.94C57,49,52.73,47,50.45,43.67a7.81,7.81,0,0,1-1.3-5.1Z"/><path class="cls-11" d="M34.25,55.18C35.12,59.9,37.4,67.61,44.46,66c6.38-1.45,5.75-9.95.79-12.79,1,2.13,2.3,4.91.2,6.87-2.3,2.15-6.22,1.09-8.37-.7a11.82,11.82,0,0,1-2.95-4.77Z"/><path class="cls-12" d="M53.81,52.36c-1.93-3-4.47-5.71-6.15-8.86-1.39-2.61-1.44-6.54-.94-9.43s2-5.6,2.15-8.6c-1.35,1.07-2.18,2.88-3,4.32a19.43,19.43,0,0,0-2.22,7.64c-.17,4.6,1.74,7.74,5.5,10.63A38.53,38.53,0,0,1,53.81,52.36Z"/><path class="cls-12" d="M40.39,45.37c.44,3.17,3.2,5.25,3.54,8.32.26,2.42-1.34,6.86-5,5.5a4.66,4.66,0,0,0,3.27-3.08c.57-2.46-1.86-5.11-2.83-7.29-1.5-3.39-.2-6.69,2.07-9.43C41.36,41.4,40.11,43.31,40.39,45.37Z"/></g></g></svg>